<?xml version="1.0" standalone="no"?>
<!DOCTYPE svg PUBLIC "-//W3C//DTD SVG 1.1//EN" "http://www.w3.org/Graphics/SVG/1.1/DTD/svg11.dtd">
<svg xmlns="http://www.w3.org/2000/svg" id="Layer_1" data-name="Layer 1" viewBox="0 0 481.07 160" width="481.07000732421875" height="160">
  <defs>
    <style>
      .cls-1 {
        fill: #0045db;
      }
    </style>
  </defs>
  <g>
    <path d="M183.98,123.98V37.15h29.36c6.2,0,11.73,1.04,16.57,3.12,4.84,2.08,8.66,5.16,11.44,9.25,2.78,4.08,4.17,9.11,4.17,15.07s-1.29,10.68-3.87,14.74-6.18,7.17-10.78,9.31c-4.6,2.14-9.95,3.21-16.03,3.21h-19.46v32.12h-11.41Zm11.35-41.49h19.28c5.92,0,10.76-1.66,14.5-4.98,3.74-3.32,5.61-7.85,5.61-13.57s-1.92-10.13-5.76-13.09c-3.84-2.96-8.81-4.44-14.89-4.44h-18.73v36.09Z"/>
    <path d="M281.98,125.18c-8.61,0-15.5-2.74-20.69-8.23-5.18-5.48-7.78-13.41-7.78-23.78,0-6.48,1.1-12.17,3.3-17.05,2.2-4.88,5.42-8.68,9.67-11.38,4.24-2.7,9.43-4.05,15.55-4.05,8.53,0,15.36,2.8,20.51,8.41,5.14,5.6,7.72,13.63,7.72,24.08,0,6.33-1.07,11.89-3.21,16.69-2.14,4.8-5.31,8.56-9.52,11.26-4.2,2.7-9.39,4.05-15.55,4.05Zm.06-8.77c5.52,0,9.78-2.09,12.76-6.27,2.98-4.18,4.47-9.92,4.47-17.2,0-4.44-.59-8.44-1.77-11.98-1.18-3.54-3.04-6.35-5.58-8.44-2.54-2.08-5.83-3.12-9.88-3.12-5.64,0-9.97,2.07-12.97,6.21-3,4.14-4.5,9.92-4.5,17.32,0,4.36,.59,8.33,1.77,11.89,1.18,3.56,3.05,6.39,5.61,8.47,2.56,2.08,5.92,3.12,10.09,3.12Z"/>
    <path d="M347.67,125.18c-8.09,0-14.48-2.76-19.19-8.29-4.7-5.52-7.06-13.59-7.06-24.2,0-9.69,2.12-17.44,6.36-23.27,4.24-5.82,10.57-8.74,18.98-8.74,3.96,0,7.33,.64,10.12,1.92,2.78,1.28,5.01,2.78,6.7,4.5,1.68,1.72,2.86,3.26,3.54,4.62V34.75h11.23V123.98h-8.53l-1.2-12.73c-.52,1.6-1.49,3.5-2.91,5.71-1.42,2.2-3.57,4.12-6.46,5.76-2.88,1.64-6.75,2.46-11.59,2.46Zm1.98-8.53c6.24,0,10.72-1.91,13.42-5.73,2.7-3.82,4.05-10.08,4.05-18.76-.08-7.25-1.44-12.86-4.08-16.84-2.64-3.98-7.05-5.97-13.21-5.97-5.08,0-9.23,1.81-12.43,5.43-3.2,3.62-4.8,9.42-4.8,17.38s1.44,13.79,4.32,18.07c2.88,4.28,7.12,6.42,12.73,6.42Z"/>
    <path d="M408.79,37.21v11.53h-11.35v-11.53h11.35Zm-.3,24.68v62.09h-10.75V61.89h10.75Z"/>
    <path d="M452.03,125.18c-8.61,0-15.5-2.74-20.69-8.23-5.18-5.48-7.78-13.41-7.78-23.78,0-6.48,1.1-12.17,3.3-17.05,2.2-4.88,5.42-8.68,9.67-11.38,4.24-2.7,9.43-4.05,15.55-4.05,8.53,0,15.36,2.8,20.51,8.41,5.14,5.6,7.72,13.63,7.72,24.08,0,6.33-1.07,11.89-3.21,16.69s-5.31,8.56-9.52,11.26c-4.2,2.7-9.39,4.05-15.55,4.05Zm.06-8.77c5.52,0,9.78-2.09,12.76-6.27,2.98-4.18,4.47-9.92,4.47-17.2,0-4.44-.59-8.44-1.77-11.98-1.18-3.54-3.04-6.35-5.58-8.44-2.54-2.08-5.83-3.12-9.88-3.12-5.64,0-9.97,2.07-12.97,6.21-3,4.14-4.5,9.92-4.5,17.32,0,4.36,.59,8.33,1.77,11.89,1.18,3.56,3.05,6.39,5.61,8.47,2.56,2.08,5.92,3.12,10.09,3.12Z"/>
  </g>
  <g>
    <path class="cls-1" d="M59.11,77.3c-1.85-1.85-3.1-4.22-3.6-6.79-.5-2.57-.21-5.23,.82-7.64,1.03-2.41,2.76-4.45,4.96-5.88,2.2-1.42,4.78-2.16,7.4-2.11,1.73,0,3.44,.33,5.04,1,1.6,.66,3.04,1.64,4.25,2.87,1.69,1.68,2.88,3.79,3.46,6.09,.57,2.31,.51,4.73-.2,7-.43,1.18-.62,2.44-.55,3.69,.07,1.25,.4,2.48,.96,3.6,.56,1.12,1.35,2.12,2.31,2.93,.96,.81,2.08,1.41,3.29,1.77,1.21,.36,2.47,.47,3.72,.33,1.25-.14,2.46-.54,3.55-1.17,1.09-.63,2.04-1.47,2.8-2.48,.75-1.01,1.29-2.16,1.58-3.38,1.41-4.7,1.71-9.67,.86-14.51-.85-4.84-2.81-9.41-5.74-13.36-2.93-3.95-6.74-7.16-11.13-9.38-4.39-2.22-9.24-3.39-14.16-3.41-4.15-.03-8.27,.76-12.11,2.33-3.84,1.58-7.33,3.9-10.25,6.84-5.92,5.92-9.25,13.94-9.25,22.31s3.33,16.39,9.25,22.31l41.13,41.23c.85,.86,1.86,1.54,2.98,2,1.12,.47,2.31,.71,3.52,.71,1.21,0,2.41-.23,3.53-.69,1.12-.46,2.14-1.13,3-1.98,.86-.85,1.54-1.86,2.01-2.97,.47-1.11,.71-2.31,.71-3.51,0-1.21-.23-2.4-.69-3.52-.46-1.12-1.13-2.13-1.99-2.99l-41.47-41.28Z"/>
    <path class="cls-1" d="M20.46,19.4l-.29,.33C7.31,32.52,.05,49.88,0,67.99c-.05,18.12,7.1,35.52,19.89,48.38l41.13,41.28c1.76,1.57,4.05,2.41,6.41,2.35,2.36-.06,4.6-1.02,6.28-2.69,1.67-1.66,2.64-3.9,2.71-6.25,.07-2.35-.76-4.65-2.33-6.41l-41.18-41.42c-9.33-9.36-14.57-22.03-14.57-35.23s5.24-25.87,14.57-35.23c9.43-9.32,22.18-14.54,35.46-14.49,13.28,.04,25.99,5.34,35.36,14.73,7.83,8.53,12.58,19.41,13.51,30.94,.93,11.52-2.02,23.03-8.38,32.69-1.19,2.05-1.54,4.48-.99,6.78,.56,2.3,1.98,4.3,3.98,5.59,2,1.28,4.41,1.75,6.74,1.31,2.33-.44,4.4-1.77,5.79-3.69,8.72-13.17,12.72-28.9,11.35-44.62-1.37-15.72-8.04-30.52-18.91-41.99C104.05,7.31,86.79,.12,68.76,0,50.73-.11,33.38,6.85,20.46,19.4Z"/>
  </g>
</svg>